<?xml version="1.0"?>
<svg xmlns="http://www.w3.org/2000/svg" xmlns:xlink="http://www.w3.org/1999/xlink" version="1.1" id="Capa_1" x="0px" y="0px" viewBox="0 0 511.877 511.877" style="enable-background:new 0 0 511.877 511.877;" xml:space="preserve" width="512px" height="512px"><g><path d="M511.877,482.163l-59.315-255.689c-5.503-23.718-15.031-45.811-28.351-65.869c18.68-19.372,28.654-41.842,28.654-65.545  c0-12.419-2.79-24.663-8.293-36.394L430.99,29.715l-13.579,28.951c-8.158,17.391-25.358,33.477-48.885,45.897  c-33.366-22.479-72.093-34.32-112.587-34.32c-40.494,0-79.22,11.841-112.588,34.32c-23.528-12.42-40.728-28.506-48.884-45.896  L80.887,29.714L67.306,58.666c-5.503,11.73-8.293,23.975-8.293,36.394c0,23.704,9.974,46.173,28.654,65.545  c-13.32,20.059-22.849,42.152-28.351,65.869L0,482.163h141.196l15-0.008V452.14h199.484v30.023H511.877z M119.541,185.613  c36.668,22.152,85.108,34.352,136.397,34.352s99.729-12.199,136.397-34.352c3.012-1.819,5.906-3.696,8.707-5.615  c5.426,8.529,10.065,17.476,13.884,26.804c-2.32,1.534-4.677,3.038-7.078,4.49c-41.282,24.938-95.231,38.673-151.91,38.673  s-110.628-13.734-151.91-38.673c-2.401-1.45-4.758-2.955-7.078-4.49c3.818-9.327,8.458-18.274,13.884-26.804  C113.635,181.917,116.529,183.794,119.541,185.613z M156.196,266.134c31.156,9.054,65.04,13.831,99.742,13.831  c34.702,0,68.586-4.777,99.742-13.831v95.958H156.196V266.134z M474.121,452.163h-88.44V255.739  c13.323-5.413,25.947-11.681,37.681-18.769c0.246-0.149,0.487-0.305,0.732-0.455L474.121,452.163z M333.642,118.778  c-23.817,7.314-50.193,11.139-77.703,11.139c-27.51,0-53.886-3.825-77.703-11.139c23.935-12.183,50.345-18.535,77.703-18.535  C283.297,100.243,309.706,106.595,333.642,118.778z M138.997,135.875c33.937,15.729,74.375,24.042,116.941,24.042  s83.004-8.313,116.941-24.042c19.912-9.229,36.567-20.515,49.459-33.402c-3.014,21.217-18.908,41.389-45.516,57.463  c-32.055,19.364-74.985,30.029-120.885,30.029s-88.83-10.665-120.885-30.029c-26.607-16.074-42.502-36.246-45.516-57.463  C102.43,115.36,119.085,126.646,138.997,135.875z M37.756,452.163l50.027-215.648c0.246,0.15,0.487,0.306,0.733,0.455  c11.733,7.088,24.357,13.356,37.68,18.769v196.424H37.756z M156.196,422.14v-30.048h199.484v30.048H156.196z" data-original="#000000" class="active-path" data-old_color="#000000" fill="#FFFFFF"/></g> </svg>
