<?xml version="1.0"?>
<svg xmlns="http://www.w3.org/2000/svg" xmlns:xlink="http://www.w3.org/1999/xlink" version="1.1" id="Capa_1" x="0px" y="0px" viewBox="0 0 512 512" style="enable-background:new 0 0 512 512;" xml:space="preserve" width="512px" height="512px"><g><g>
	<path d="M421.952,361.635v-211.27H150.096v211.27H421.952z M391.916,271h-60.048v-30h60.048V271z M180.132,180.683h211.784v30   H180.132V180.683z M180.132,241h121.712v30H180.132V241z M391.916,301.317v30H180.132v-30H391.916z" data-original="#000000" class="active-path" data-old_color="#000000" fill="#FFFFFF"/>
	<polygon points="512,60.048 150.096,60.048 150.096,120.365 451.952,120.365 451.952,391.635 150.096,391.635 150.096,451.952    512,451.952  " data-original="#000000" class="active-path" data-old_color="#000000" fill="#FFFFFF"/>
	<polygon points="120.096,60.048 90.048,60.048 90.048,0 30.024,0 30.024,60.048 0,60.048 0,451.952 30.024,451.952 30.024,512    90.048,512 90.048,451.952 120.096,451.952  " data-original="#000000" class="active-path" data-old_color="#000000" fill="#FFFFFF"/>
</g></g> </svg>
