<?xml version="1.0"?>
<svg xmlns="http://www.w3.org/2000/svg" xmlns:xlink="http://www.w3.org/1999/xlink" version="1.1" id="Capa_1" x="0px" y="0px" viewBox="0 0 512.051 512.051" style="enable-background:new 0 0 512.051 512.051;" xml:space="preserve" width="512px" height="512px"><g><g>
	<g>
		<path d="M256.025,374.958c-24.826,0-45.024-20.198-45.024-45.024s20.198-45.024,45.024-45.024s45.024,20.198,45.024,45.024    S280.852,374.958,256.025,374.958z M256.025,314.909c-8.284,0-15.024,6.74-15.024,15.024s6.74,15.024,15.024,15.024    s15.024-6.74,15.024-15.024S264.31,314.909,256.025,314.909z" data-original="#000000" class="active-path" data-old_color="#000000" fill="#FFFFFF"/>
	</g>
	<g>
		<path d="M512.051,477.75H283.817v-15c0-15.324-12.467-27.792-27.792-27.792s-27.792,12.468-27.792,27.792l0,15H0l114.14-197.695    l13,7.534c4.209,2.439,9.003,3.729,13.864,3.729c15.325,0,27.792-12.468,27.792-27.792c0-9.863-5.337-19.084-13.928-24.063    l-12.957-7.509L256.025,34.301L370.14,231.953l-12.956,7.509c-8.592,4.979-13.929,14.2-13.929,24.063    c0,15.324,12.468,27.792,27.792,27.792c4.862,0,9.655-1.289,13.863-3.729l13-7.535L512.051,477.75z M311.844,447.75h148.246    l-74.13-128.397c-4.846,1.298-9.861,1.965-14.911,1.965c-31.867,0-57.792-25.926-57.792-57.792    c0-15.425,6.25-30.082,16.918-40.797L256.025,94.301l-74.148,128.428c10.667,10.715,16.918,25.372,16.918,40.797    c0,31.866-25.925,57.792-57.792,57.792c-5.05,0-10.065-0.667-14.911-1.965L51.962,447.75h148.245    c6.622-24.619,29.137-42.792,55.818-42.792S305.222,423.131,311.844,447.75z" data-original="#000000" class="active-path" data-old_color="#000000" fill="#FFFFFF"/>
	</g>
</g></g> </svg>
