<?xml version="1.0"?>
<svg xmlns="http://www.w3.org/2000/svg" xmlns:xlink="http://www.w3.org/1999/xlink" version="1.1" id="Capa_1" x="0px" y="0px" viewBox="0 0 495.992 495.992" style="enable-background:new 0 0 495.992 495.992;" xml:space="preserve" width="512px" height="512px" class=""><g><g>
	<g>
		<g>
			<path d="M160.328,64c0-17.648-14.352-32-32-32s-32,14.352-32,32s14.352,32,32,32S160.328,81.648,160.328,64z M112.328,64     c0-8.816,7.176-16,16-16c8.816,0,16,7.184,16,16s-7.184,16-16,16C119.504,80,112.328,72.816,112.328,64z" data-original="#000000" class="active-path" data-old_color="#000000" fill="#FFFFFF"/>
			<path d="M160.328,119.336c19.096-11.088,32-31.712,32-55.336c0-35.288-28.712-64-64-64c-35.288,0-64,28.712-64,64     c0,23.624,12.904,44.256,32,55.336v94.928l-40.664,89.464l72.664,190.744l72.664-190.744l-40.664-89.456V119.336z M80.328,64     c0-26.472,21.528-48,48-48s48,21.528,48,48s-21.528,48-48,48S80.328,90.472,80.328,64z M112.328,176v-16h32v48h-32v-16h16v-16     H112.328z M112.328,144v-18.104c5.128,1.328,10.464,2.104,16,2.104s10.872-0.776,16-2.104V144H112.328z M109.48,224h10.848v28     l-35.776,26.832L109.48,224z M136.328,428.528V304h-16v124.528L73.944,306.776L120.328,272v16h16v-16l46.376,34.784     L136.328,428.528z M172.096,278.832L136.328,252v-28h10.848L172.096,278.832z" data-original="#000000" class="active-path" data-old_color="#000000" fill="#FFFFFF"/>
			<path d="M344.328,416c-13.232,0-24,10.768-24,24s10.768,24,24,24s24-10.768,24-24S357.56,416,344.328,416z M344.328,448     c-4.416,0-8-3.584-8-8c0-4.416,3.584-8,8-8c4.416,0,8,3.584,8,8C352.328,444.416,348.744,448,344.328,448z" data-original="#000000" class="active-path" data-old_color="#000000" fill="#FFFFFF"/>
			<path d="M440.328,250.808v-80.904L388.576,232h-4.248V53.192l-40-50l-40,50V232h-4.248l-51.752-62.096V250.8l64,80.008v63.296     c-14.488,10.136-24,26.912-24,45.888c0,30.872,25.128,56,56,56s56-25.128,56-56c0-18.976-9.512-35.752-24-45.888v-63.296     L440.328,250.808z M384.328,440c0,22.056-17.944,40-40,40c-22.056,0-40-17.944-40-40c0-22.056,17.944-40,40-40     C366.384,400,384.328,417.944,384.328,440z M360.328,368v18.36c-5.072-1.52-10.44-2.36-16-2.36s-10.928,0.84-16,2.36V368H360.328     z M328.328,352v-16h32v16H328.328z M364.48,320h-12.152v-16h-16v16h-12.152l-59.848-74.808v-31.096L292.576,248h27.752V58.808     l16-20V288h16V38.808l16,20V248h27.752l28.248-33.904V245.2L364.48,320z" data-original="#000000" class="active-path" data-old_color="#000000" fill="#FFFFFF"/>
		</g>
	</g>
</g></g> </svg>
